<svg width="20" height="20" viewBox="0 0 20 20" fill="none" xmlns="http://www.w3.org/2000/svg">
<path d="M6.0289e-05 2.92889L6.09071e-05 17.0695C6.09777e-05 18.6848 1.31445 19.9992 2.92975 19.9992L17.0704 19.9992C18.6857 19.9992 20.0001 18.6848 20.0001 17.0695L20.0001 11.1711L12.9297 11.1711L12.9297 13.5148L9.41412 13.5148L9.41412 11.1711L7.03131 11.1711C5.09268 11.1711 3.51569 9.59409 3.51569 7.65546L3.51569 4.10077L7.03131 4.10077L7.03131 7.65546L9.41412 7.65546L9.41412 4.10077L12.9297 4.68671L12.9297 7.65546L20.0001 7.65546L20.0001 2.92889C20.0001 1.3136 18.6857 -0.000794274 17.0704 -0.000794203L2.92975 -0.000793585C1.31445 -0.000793514 6.02184e-05 1.3136 6.0289e-05 2.92889Z" fill="black"/>
</svg>
