<svg width="19" height="20" viewBox="0 0 19 20" fill="none" xmlns="http://www.w3.org/2000/svg">
<path d="M6.0598e-05 9.99872C6.08395e-05 15.5237 4.36173 19.9987 9.74113 19.9987C14.0458 19.9987 17.6962 17.1337 18.9833 13.1612C19.0749 12.6612 18.7734 12.4779 18.5149 12.4779C18.2836 12.4779 17.6706 12.4862 16.8586 12.4904C17.4459 15.2721 15.5517 15.8587 15.5517 15.8587C14.4275 16.3137 14.1268 16.9712 14.1268 16.9712C13.5229 17.8771 13.5353 16.9012 13.5353 16.9012C13.603 15.8971 14.539 15.3696 14.539 15.3696C16.0284 14.4779 15.598 13.0287 15.3494 12.4571C14.7191 12.3671 14.2903 12.1096 14.0466 11.8237C13.8029 14.0446 12.9653 16.3787 9.2331 16.3787C8.16994 16.3787 7.30091 15.9912 6.6194 15.3496C6.37323 15.4621 5.38276 15.7996 4.04122 15.2621C4.04122 15.2621 3.78018 14.4246 5.03994 12.5121C4.82351 11.7121 4.71612 10.8621 4.71116 10.0121C4.71612 9.16205 4.82351 8.31205 5.03994 7.51205C3.78018 5.61205 4.04122 4.77455 4.04122 4.77455C5.38276 4.23705 6.37323 4.57455 6.6194 4.67455C7.30091 4.03705 8.16994 3.64955 9.2331 3.64955C12.9752 3.64955 13.7988 5.98705 14.0384 8.21205C14.3308 7.86205 14.9281 7.53705 15.8409 7.53705C17.1444 7.53705 18.1919 7.54955 18.5083 7.54955C18.7635 7.54955 19.0683 7.37455 18.9709 6.86205C17.6921 2.86122 14.0392 -0.00128235 9.74113 -0.00128216C4.36173 -0.00128193 6.03566e-05 4.47622 6.0598e-05 9.99872Z" fill="black"/>
</svg>
