<svg width="20" height="20" viewBox="0 0 20 20" fill="none" xmlns="http://www.w3.org/2000/svg">
<path d="M6.04341e-05 6.24921L6.0762e-05 13.7492C6.09128e-05 17.2005 2.79881 19.9992 6.25006 19.9992L13.7501 19.9992C17.2013 19.9992 20.0001 17.2005 20.0001 13.7492L20.0001 6.24921C20.0001 2.79796 17.2013 -0.000794209 13.7501 -0.000794058L6.25006 -0.00079373C2.79881 -0.000793579 6.02833e-05 2.79796 6.04341e-05 6.24921ZM13.7501 1.87421C16.1626 1.87421 18.1251 3.83671 18.1251 6.24921L18.1251 13.7492C18.1251 16.1617 16.1626 18.1242 13.7501 18.1242L6.25006 18.1242C3.83756 18.1242 1.87506 16.1617 1.87506 13.7492L1.87506 6.24921C1.87506 3.83671 3.83756 1.87421 6.25006 1.87421L13.7501 1.87421Z" fill="black"/>
<path d="M5.00006 9.99921C5.00006 12.7605 7.23881 14.9992 10.0001 14.9992C12.7613 14.9992 15.0001 12.7605 15.0001 9.99921C15.0001 7.23796 12.7613 4.99921 10.0001 4.99921C7.23881 4.99921 5.00006 7.23796 5.00006 9.99921ZM13.1251 9.99921C13.1251 11.7217 11.7226 13.1242 10.0001 13.1242C8.27631 13.1242 6.87506 11.7217 6.87506 9.99921C6.87506 8.27671 8.27631 6.87421 10.0001 6.87421C11.7226 6.87421 13.1251 8.27671 13.1251 9.99921Z" fill="black"/>
<path d="M5.2913 4.62421C5.2913 4.25625 4.99301 3.95796 4.62505 3.95796C4.25709 3.95796 3.9588 4.25625 3.9588 4.62421C3.9588 4.99217 4.25709 5.29046 4.62505 5.29046C4.99301 5.29046 5.2913 4.99217 5.2913 4.62421Z" fill="black"/>
</svg>
